<?xml version="1.0" standalone="no"?><!DOCTYPE svg PUBLIC "-//W3C//DTD SVG 1.1//EN" "http://www.w3.org/Graphics/SVG/1.1/DTD/svg11.dtd"><svg t="1744859222535" class="icon" viewBox="0 0 1194 1024" version="1.1" xmlns="http://www.w3.org/2000/svg" p-id="17498" xmlns:xlink="http://www.w3.org/1999/xlink" width="233.203125" height="200"><path d="M179.943559 356.620165q60.666686-2.399247 80.546164 35.988712l13.709986 34.274963v23.992475q-6.512243 39.758958-35.988712 56.55369l-34.274964 13.709985h-23.992474q-39.758958-6.512243-56.55369-35.988711l-13.709986-34.274964v-23.992475q6.512243-39.758958 35.988712-56.553689l34.274964-13.709986zM426.723297 356.620165q60.666686-2.399247 80.546164 35.988712l13.709985 34.274963v23.992475q-6.512243 39.758958-35.988711 56.55369l-34.274964 13.709985h-23.992474q-39.758958-6.512243-56.55369-35.988711l-13.709986-34.274964v-23.992475q6.512243-39.758958 35.988712-56.553689l34.274964-13.709986zM673.503034 356.620165q60.666686-2.399247 80.546165 35.988712l13.709985 34.274963v23.992475q-6.512243 39.758958-35.988712 56.55369l-34.274963 13.709985h-23.992475q-39.758958-6.512243-56.55369-35.988711l-13.709985-34.274964v-23.992475q6.512243-39.758958 35.988712-56.553689l34.274963-13.709986zM426.723297 603.399903q60.666686-2.399247 80.546164 35.988712l13.709985 34.274963v23.992475q-6.512243 39.758958-35.988711 56.55369l-34.274964 13.709985h-23.992474q-39.758958-6.512243-56.55369-35.988712l-13.709986-34.274963v-23.992475q6.512243-39.758958 35.988712-56.55369l34.274964-13.709985z" fill="#232323" opacity=".98" p-id="17499"></path><path d="M169.66107 109.840427q34.617713-5.483994 54.839941 3.427497L260.489723 142.401643q21.250477 21.593227 13.709986 71.977423-9.59699 29.819218-32.561216 46.271201-21.593227 21.250477-71.977423 13.709986-29.819218-9.59699-46.271201-32.561216-19.879479-22.964226-13.709986-71.977423 9.59699-29.819218 32.561216-46.271201l27.419971-13.709986zM416.440807 109.840427q34.617713-5.483994 54.839942 3.427497l35.988712 29.133719q21.250477 21.593227 13.709985 71.977423-9.59699 29.819218-32.561215 46.271201-21.593227 21.250477-71.977424 13.709986-29.819218-9.59699-46.2712-32.561216-19.879479-22.964226-13.709986-71.977423 9.59699-29.819218 32.561216-46.271201l27.41997-13.709986zM663.220545 109.840427q34.617713-5.483994 54.839942 3.427497l35.988712 29.133719q21.250477 21.593227 13.709985 71.977423-9.59699 29.819218-32.561215 46.271201-21.593227 21.250477-71.977424 13.709986-29.819218-9.59699-46.271201-32.561216-19.879479-22.964226-13.709985-71.977423 9.59699-29.819218 32.561215-46.271201l27.419971-13.709986zM169.66107 356.620165l8.568741 1.713748-8.568741 1.713748v-3.427496zM207.36353 356.620165l8.568741 1.713748-8.568741 1.713748v-3.427496zM416.440807 356.620165l8.568741 1.713748-8.568741 1.713748v-3.427496zM454.143267 356.620165l8.568741 1.713748-8.568741 1.713748v-3.427496zM663.220545 356.620165l8.568741 1.713748-8.568741 1.713748v-3.427496zM700.923005 356.620165l8.568741 1.713748-8.568741 1.713748v-3.427496zM159.378581 360.047661l5.141244 1.713749-15.423733 8.568741 3.427496-6.854993 6.854993-3.427497zM406.158318 360.047661l5.141245 1.713749-15.423734 8.568741 3.427497-6.854993 6.854992-3.427497zM652.938056 360.047661l5.141245 1.713749-15.423734 8.568741 3.427496-6.854993 6.854993-3.427497zM231.356004 363.475158l3.427496 6.854993-3.427496-6.854993zM478.135742 363.475158l3.427496 6.854993-3.427496-6.854993zM724.91548 363.475158l3.427496 6.854993-3.427496-6.854993zM142.241099 370.330151l-17.137482 20.564978 17.137482-20.564978zM241.638493 370.330151l17.137482 20.564978-17.137482-20.564978zM389.020837 370.330151l-17.137482 20.564978 17.137482-20.564978zM488.418231 370.330151l17.137482 20.564978-17.137482-20.564978zM635.800574 370.330151l-17.137481 20.564978 17.137481-20.564978zM735.197969 370.330151l17.137481 20.564978-17.137481-20.564978zM121.676121 394.322625l-3.427497 6.854993 3.427497-6.854993zM262.203471 394.322625l8.568741 15.423734h-3.427496l-5.141245-15.423734zM368.455858 394.322625l-3.427496 6.854993 3.427496-6.854993zM508.983209 394.322625l8.568741 15.423734h-3.427496l-5.141245-15.423734zM615.235596 394.322625l-3.427496 6.854993 3.427496-6.854993zM755.762947 394.322625l8.568741 15.423734h-3.427497l-5.141244-15.423734zM111.393632 414.887603l1.713748 8.568741h-3.427497l1.713749-8.568741zM272.48596 414.887603l1.713749 8.568741h-3.427497l1.713748-8.568741zM358.173369 414.887603l1.713749 8.568741h-3.427497l1.713748-8.568741zM519.265698 414.887603l1.713748 8.568741h-3.427496l1.713748-8.568741zM604.953107 414.887603l1.713748 8.568741h-3.427496l1.713748-8.568741zM766.045436 414.887603l1.713748 8.568741h-3.427496l1.713748-8.568741zM111.393632 452.590063l1.713748 8.568741h-3.427497l1.713749-8.568741zM272.48596 452.590063l1.713749 8.568741h-3.427497l1.713748-8.568741zM358.173369 452.590063l1.713749 8.568741h-3.427497l1.713748-8.568741zM519.265698 452.590063l1.713748 8.568741h-3.427496l1.713748-8.568741zM604.953107 452.590063l1.713748 8.568741h-3.427496l1.713748-8.568741zM766.045436 452.590063l1.713748 8.568741h-3.427496l1.713748-8.568741zM114.821128 466.300049l8.568741 15.423733-6.854993-3.427496-1.713748-11.996237zM361.600866 466.300049l8.568741 15.423733-6.854993-3.427496-1.713748-11.996237zM608.380603 466.300049l8.568741 15.423733-6.854992-3.427496-1.713749-11.996237zM265.630968 476.582538l-3.427497 6.854992 3.427497-6.854992zM512.410705 476.582538l-3.427496 6.854992 3.427496-6.854992zM759.190443 476.582538l-3.427496 6.854992 3.427496-6.854992zM125.103617 486.865027l17.137482 20.564978-17.137482-20.564978zM258.775975 486.865027l-17.137482 20.564978 17.137482-20.564978zM371.883355 486.865027l17.137482 20.564978-17.137482-20.564978zM505.555713 486.865027l-17.137482 20.564978 17.137482-20.564978zM618.663093 486.865027l17.137481 20.564978-17.137481-20.564978zM752.33545 486.865027l-17.137481 20.564978 17.137481-20.564978zM149.096092 507.430005l3.427496 6.854993-3.427496-6.854993zM234.7835 507.430005l-3.427496 6.854993-10.282489 3.427496v-3.427496l13.709985-6.854993zM395.875829 507.430005l3.427497 6.854993-3.427497-6.854993zM481.563238 507.430005l-3.427496 6.854993-10.282489 3.427496v-3.427496l13.709985-6.854993zM642.655567 507.430005l3.427496 6.854993-3.427496-6.854993zM728.342976 507.430005l-3.427496 6.854993-10.282489 3.427496v-3.427496l13.709985-6.854993zM169.66107 517.712494l8.568741 1.713748-8.568741 1.713748v-3.427496zM207.36353 517.712494l8.568741 1.713748-8.568741 1.713748v-3.427496zM416.440807 517.712494l8.568741 1.713748-8.568741 1.713748v-3.427496zM454.143267 517.712494l8.568741 1.713748-8.568741 1.713748v-3.427496zM663.220545 517.712494l8.568741 1.713748-8.568741 1.713748v-3.427496zM700.923005 517.712494l8.568741 1.713748-8.568741 1.713748v-3.427496zM169.66107 603.399903q34.617713-5.483994 54.839941 3.427496l35.988712 29.133719q21.250477 21.593227 13.709986 71.977424-9.59699 29.819218-32.561216 46.271201-21.593227 21.250477-71.977423 13.709985-29.819218-9.59699-46.271201-32.561215-19.879479-22.964226-13.709986-71.977424 9.59699-29.819218 32.561216-46.271201l27.419971-13.709985zM416.440807 603.399903l8.568741 1.713748-8.568741 1.713748v-3.427496zM454.143267 603.399903l8.568741 1.713748-8.568741 1.713748v-3.427496zM663.220545 603.399903q34.617713-5.483994 54.839942 3.427496l35.988712 29.133719q21.250477 21.593227 13.709985 71.977424-9.59699 29.819218-32.561215 46.271201-21.593227 21.250477-71.977424 13.709985-29.819218-9.59699-46.271201-32.561215-19.879479-22.964226-13.709985-71.977424 9.59699-29.819218 32.561215-46.271201l27.419971-13.709985zM406.158318 606.827399l5.141245 1.713748-15.423734 8.568741 3.427497-6.854992 6.854992-3.427497zM478.135742 610.254896l3.427496 6.854992-3.427496-6.854992zM389.020837 617.109888l-17.137482 20.564978 17.137482-20.564978zM488.418231 617.109888l17.137482 20.564978-17.137482-20.564978zM368.455858 641.102363l-3.427496 6.854993 3.427496-6.854993zM508.983209 641.102363l8.568741 15.423733h-3.427496l-5.141245-15.423733zM358.173369 661.667341l1.713749 8.568741h-3.427497l1.713748-8.568741zM519.265698 661.667341l1.713748 8.568741h-3.427496l1.713748-8.568741zM358.173369 699.369801l1.713749 8.568741h-3.427497l1.713748-8.568741zM519.265698 699.369801l1.713748 8.568741h-3.427496l1.713748-8.568741zM361.600866 713.079786l8.568741 15.423734-6.854993-3.427496-1.713748-11.996238zM512.410705 723.362275l-3.427496 6.854993 3.427496-6.854993zM371.883355 733.644764l17.137482 20.564979-17.137482-20.564979zM505.555713 733.644764l-17.137482 20.564979 17.137482-20.564979zM395.875829 754.209743l3.427497 6.854992-3.427497-6.854992zM481.563238 754.209743l-3.427496 6.854992-10.282489 3.427497v-3.427497l13.709985-6.854992zM416.440807 764.492232l8.568741 1.713748-8.568741 1.713748v-3.427496zM454.143267 764.492232l8.568741 1.713748-8.568741 1.713748v-3.427496z" fill="#232323" opacity=".192" p-id="17500"></path></svg>