<?xml version="1.0" standalone="no"?><!DOCTYPE svg PUBLIC "-//W3C//DTD SVG 1.1//EN" "http://www.w3.org/Graphics/SVG/1.1/DTD/svg11.dtd"><svg t="1745151630459" class="icon" viewBox="0 0 1024 1024" version="1.1" xmlns="http://www.w3.org/2000/svg" p-id="43882" xmlns:xlink="http://www.w3.org/1999/xlink" width="200" height="200"><path d="M950.7584 21.3248c40.4224 0.128 73.1136 34.56 73.2416 77.056v634.8288c-0.128 42.496-32.8192 76.9536-73.2416 77.056h-192.6144c-32.6144 0-48.896 41.5232-25.856 65.7152l65.8176 69.0432c14.0288 25.6512-3.584 57.6512-31.6928 57.6512H265.856c-28.1088 0-45.696-32.0256-31.6928-57.6512l65.792-69.0432c23.0912-24.2176 6.784-65.7408-25.8304-65.7408H73.2416C32.8192 810.1376 0.128 775.7312 0 733.184V98.432C0.128 55.9104 32.8192 21.4272 73.2416 21.3504H950.784zM722.816 431.872H493.056v170.5216l229.7856 32.256V431.872z m-248.832 0h-172.8v143.6928l172.8 24.2688V431.872z m0-191.744l-172.8 24.32v145.7408h172.8V240.128z m248.832-34.816L493.056 237.6192v172.6208h229.7856V205.3376z" fill="#4C9FD9" p-id="43883"></path></svg>