<?xml version="1.0" standalone="no"?><!DOCTYPE svg PUBLIC "-//W3C//DTD SVG 1.1//EN" "http://www.w3.org/Graphics/SVG/1.1/DTD/svg11.dtd"><svg t="1745151157501" class="icon" viewBox="0 0 1024 1024" version="1.1" xmlns="http://www.w3.org/2000/svg" p-id="28901" xmlns:xlink="http://www.w3.org/1999/xlink" width="200" height="200"><path d="M770.048 384.256H253.952c-33.024 0-59.904-26.88-59.904-59.904V102.912c0-33.024 26.88-59.904 59.904-59.904h516.352c33.024 0 59.904 26.88 59.904 59.904v221.44c-0.256 33.024-27.136 59.904-60.16 59.904zM253.952 91.392c-6.4 0-11.52 5.12-11.52 11.52v221.44c0 6.4 5.12 11.52 11.52 11.52h516.352c6.4 0 11.52-5.12 11.52-11.52V102.912c0-6.4-5.12-11.52-11.52-11.52H253.952z" fill="#37AEE5" p-id="28902"></path><path d="M314.112 224.768m-36.608 0a36.608 36.608 0 1 0 73.216 0 36.608 36.608 0 1 0-73.216 0Z" fill="#37AEE5" p-id="28903"></path><path d="M484.608 384h54.784v361.216h-54.784z" fill="#37AEE5" p-id="28904"></path><path d="M866.17856 477.82656v54.784h-708.608v-54.784z" fill="#37AEE5" p-id="28905"></path><path d="M102.912 477.952h54.784v267.52H102.912zM866.304 477.952h54.784v267.52h-54.784z" fill="#37AEE5" p-id="28906"></path><path d="M200.704 980.992h-140.8C26.88 980.992 0 954.112 0 921.088v-141.056c0-33.024 26.88-59.904 59.904-59.904h141.056c33.024 0 59.904 26.88 59.904 59.904v141.056c-0.256 33.024-27.136 59.904-60.16 59.904z m-140.8-212.224c-6.4 0-11.52 5.12-11.52 11.52v141.056c0 6.4 5.12 11.52 11.52 11.52h141.056c6.4 0 11.52-5.12 11.52-11.52v-141.056c0-6.4-5.12-11.52-11.52-11.52H59.904zM582.4 980.992h-141.056c-33.024 0-59.904-26.88-59.904-59.904v-141.056c0-33.024 26.88-59.904 59.904-59.904h141.056c33.024 0 59.904 26.88 59.904 59.904v141.056c0 33.024-26.88 59.904-59.904 59.904z m-140.8-212.224c-6.4 0-11.52 5.12-11.52 11.52v141.056c0 6.4 5.12 11.52 11.52 11.52h141.056c6.4 0 11.52-5.12 11.52-11.52v-141.056c0-6.4-5.12-11.52-11.52-11.52h-141.056zM964.096 980.992h-141.056c-33.024 0-59.904-26.88-59.904-59.904v-141.056c0-33.024 26.88-59.904 59.904-59.904h141.056c33.024 0 59.904 26.88 59.904 59.904v141.056c0 33.024-26.88 59.904-59.904 59.904z m-140.8-212.224c-6.4 0-11.52 5.12-11.52 11.52v141.056c0 6.4 5.12 11.52 11.52 11.52h141.056c6.4 0 11.52-5.12 11.52-11.52v-141.056c0-6.4-5.12-11.52-11.52-11.52h-141.056z" fill="#37AEE5" p-id="28907"></path></svg>