<?xml version="1.0" standalone="no"?><!DOCTYPE svg PUBLIC "-//W3C//DTD SVG 1.1//EN" "http://www.w3.org/Graphics/SVG/1.1/DTD/svg11.dtd"><svg t="1745151746215" class="icon" viewBox="0 0 1024 1024" version="1.1" xmlns="http://www.w3.org/2000/svg" p-id="50154" xmlns:xlink="http://www.w3.org/1999/xlink" width="200" height="200"><path d="M318.4128125 581.894375c-0.585-7.55625-2.788125-16.41-9.63375-36.7153125-2.60625-7.730625-10.126875-30.9965625-11.4253125-34.8684375-4.5328125-13.5140625-8.08125-22.4390625-12.384375-30.815625-5.41875-10.54875-12.35625-20.66625-22.4596875-32.29875a27224.5096875 27224.5096875 0 0 1-86.1740625-99.6721875c-48.935625-47.7225-66.999375-95.184375-17.9915625-128.36625 42.6046875-28.846875 74.5471875-16.441875 127.6809375 25.265625 49.9125 39.1790625 95.2565625 81.9459375 136.005 128.2809375-4.659375-27.290625-8.803125-49.455-12.421875-66.448125-7.4709375-35.0775-23.443125-87.71625-47.8396875-157.265625l-2.0296875-8.4984375c-5.2425-39.56625 4.0040625-71.6596875 39.144375-83.9484375 2.6353125-0.9975 12.2175-4.63875 14.90625-5.50875 7.790625-2.5246875 15.185625-3.916875 23.4721875-3.748125 16.0425 0.328125 30.4546875 6.75 42.80625 18.12375 32.158125 29.6128125 56.300625 78.0590625 74.4853125 144.6421875l55.9078125 188.233125 0.10125-156.645c-3.8465625-48.204375-5.780625-84.571875-5.780625-109.5271875 0-13.8496875 0.575625-24.673125 1.9425-33.24375 1.059375-6.6375 2.60625-12.4575 5.398125-18.29625 4.4671875-9.3421875 11.4-17.495625 21.208125-22.186875a93.065625 93.065625 0 0 1 6.763125-4.0171875C663.678125 41.650625 691.315625 39.1784375 717.5 56.0834375c4.5009375 2.90625 8.745 6.3121875 12.7134375 10.18875 25.5421875 24.94875 36.7453125 73.340625 41.765625 152.98125l9.4340625 137.3390625c8.805-30.66 18.75-61.6275 29.83125-92.9034375 14.739375-41.6015625 31.9171875-67.995 69.301875-67.995 3.159375-0.005625 3.159375-0.005625 5.6840625 0.01875 13.2975 0.196875 23.3128125 1.7934375 34.6471875 8.1421875 18.414375 10.314375 28.3434375 29.071875 28.3434375 50.54625 0 63.55875-1.8084375 99.06-6.6534375 135.7528125-1.78125 13.490625-14.7684375 92.8321875-19.8759375 129.0496875a3030.36375 3030.36375 0 0 0-8.8340625 67.9978125c-1.3640625 11.4975-5.1478125 44.8725-5.67375 49.3621875-1.0940625 9.339375-2.0625 17.12625-3.07875 24.65625-5.3465625 39.5840625-12.890625 76.78125-28.651875 139.216875-23.814375 94.33125-56.115 122.405625-176.08875 157.9809375-129.1340625 38.29125-218.26875 29.3371875-306.984375-42.645-55.704375-45.19875-110.9465625-99.3890625-165.474375-162.204375-34.768125-39.1884375-73.1953125-69.174375-115.4034375-90.2325-51.7575-25.8225-49.3078125-102.451875-2.29125-129.6159375 32.128125-18.5625 62.1328125-13.066875 112.5328125 8.4215625 24.54 10.4625 45.650625 22.5375 61.704375 35.203125 13.021875 9.28125 24.350625 17.375625 33.9984375 24.2925 0.2859375-13.051875 0.28125-15.669375-0.0346875-19.7428125z" fill="#4185F4" p-id="50155"></path><path d="M131.5034375 625.25c47.1946875 23.5453125 89.941875 56.9025 128.240625 100.0715625 53.26875 61.36125 106.7540625 113.8275 160.455 157.3996875 82.0284375 66.556875 161.274375 66.556875 268.0659375 34.89 106.7925-31.6659375 127.209375-49.51125 146.92125-127.591875 33.7921875-133.8553125 25.775625-137.8790625 45.3609375-276.759375 18.181875-128.92875 26.113125-128.92875 26.113125-258.85875 0-16.738125-14.203125-16.145625-26.113125-16.145625-11.9109375 0-23.0296875 22.276875-29.184375 39.6478125-24.2390625 68.41125-42.853125 135.1875-55.84125 200.32875h-48.4134375l-17.5903125-256.06125c-4.348125-68.968125-14.02875-110.784375-29.04375-125.450625-22.520625-21.9984375-47.484375 0-47.484375 0-7.528125 0.013125-7.528125 47.191875 0 141.5353125v211.921875h-71.51625L513.7521875 222.171875c-16.5253125-60.4725-37.3640625-102.2896875-62.51625-125.450625-13.4090625-12.3478125-22.955625-5.3671875-38.3034375 0-10.231875 3.5784375-13.8984375 16.3059375-11.000625 38.1825 24.9440625 71.113125 41.379375 125.27625 49.3040625 162.4875 7.925625 37.2121875 18.125625 97.4925 30.5990625 180.841875h-30.5990625c-53.0925-75.0196875-116.923125-141.796875-191.4909375-200.32875-30.72375-24.1171875-53.6934375-39.646875-77.5378125-23.503125-15.89625 10.764375-7.948125 31.648125 23.844375 62.65125 36.4921875 42.174375 66.0225 76.2515625 88.5909375 102.234375 33.853125 38.971875 38.63625 65.334375 54.46875 112.2965625 15.8315625 46.9621875 11.585625 46.9621875 11.585625 93.6675 0 23.49375-17.4178125 47.1309375-33.4040625 35.3184375-10.66875-7.884375-33.1846875-24.0721875-67.5478125-48.5653125-14.518125-11.4009375-32.4159375-21.6375-53.6934375-30.7096875-32.2040625-13.730625-56.540625-21.12375-74.548125-10.7203125-18.0075 10.404375-20.8378125 44.2809375 0 54.676875z" fill="#ECECEC" p-id="50156"></path><path d="M451.2359375 478.2321875h30.140625l-3.3196875-18.676875-26.8209375-23.885625v42.5625l26.8209375-18.676875c-19.880625-28.0903125-33.2765625-60.9825-56.026875-86.8509375 5.2546875 30.77625 22.6584375 61.77375 29.2059375 105.5278125z" fill="#7C8196" p-id="50157"></path></svg>