<?xml version="1.0" standalone="no"?><!DOCTYPE svg PUBLIC "-//W3C//DTD SVG 1.1//EN" "http://www.w3.org/Graphics/SVG/1.1/DTD/svg11.dtd"><svg t="1744858845135" class="icon" viewBox="0 0 1024 1024" version="1.1" xmlns="http://www.w3.org/2000/svg" p-id="4973" xmlns:xlink="http://www.w3.org/1999/xlink" width="200" height="200"><path d="M995.84 622.08L857.6 537.6c-10.24-7.68-23.04-12.8-33.28-20.48-35.84-25.6-74.24-46.08-110.08-71.68-5.12-5.12-7.68-2.56-10.24 2.56-10.24 23.04-23.04 46.08-33.28 69.12-2.56 7.68-7.68 7.68-15.36 7.68-23.04 0-43.52 2.56-66.56 2.56-5.12 0-7.68 0-10.24 5.12-15.36 30.72-30.72 58.88-46.08 89.6 0 5.12-7.68 7.68-2.56 15.36 2.56 5.12 7.68 10.24 10.24 15.36 2.56 5.12 5.12 5.12 10.24 5.12h53.76c0 7.68-5.12 12.8-7.68 17.92-7.68 15.36-15.36 30.72-23.04 43.52-7.68 15.36-17.92 33.28-25.6 48.64-7.68 15.36-23.04 25.6-38.4 30.72-12.8 5.12-25.6 7.68-38.4 12.8-7.68-12.8-12.8-23.04-20.48-35.84-5.12-12.8-12.8-28.16-20.48-40.96-10.24-20.48-17.92-40.96-30.72-58.88-10.24-25.6-7.68-51.2 5.12-76.8 33.28-64 64-128 97.28-192h258.56c20.48 0 53.76-66.56 66.56-84.48 28.16-40.96 56.32-81.92 87.04-120.32 7.68-10.24 20.48-46.08 7.68-58.88-10.24-10.24-64 0-79.36 0-58.88 2.56-115.2 5.12-174.08 7.68 17.92-23.04 53.76-43.52 79.36-58.88 12.8-7.68 23.04-15.36 35.84-23.04 0-2.56-2.56-2.56-2.56-2.56h-43.52c-25.6 0-51.2 2.56-76.8 5.12h-7.68c-51.2 2.56-102.4 10.24-153.6 20.48-74.24 15.36-138.24 51.2-194.56 99.84-5.12 5.12-12.8 10.24-20.48 12.8-10.24 5.12-28.16 5.12-38.4 7.68-12.8 5.12-28.16 15.36-40.96 23.04-28.16 17.92-56.32 38.4-79.36 61.44-20.48 20.48-40.96 46.08-58.88 69.12-10.24 12.8-17.92 25.6-28.16 38.4-5.12 5.12-15.36 28.16-17.92 30.72 5.12-2.56 12.8-5.12 17.92-5.12 7.68-2.56 15.36-2.56 23.04-5.12 30.72-5.12 58.88-10.24 89.6-15.36H153.6v2.56c-10.24 7.68-12.8 17.92-23.04 28.16-2.56 2.56-2.56 5.12-5.12 7.68-23.04 38.4-43.52 81.92-56.32 125.44-10.24 33.28-7.68 51.2 12.8 81.92 12.8 20.48 28.16 40.96 40.96 58.88 20.48 28.16 38.4 58.88 61.44 87.04 17.92 25.6 38.4 51.2 66.56 69.12 30.72 17.92 69.12 20.48 102.4 28.16 71.68 15.36 145.92 28.16 217.6 12.8 33.28-7.68 66.56-20.48 97.28-35.84 28.16-12.8 61.44-25.6 81.92-51.2 10.24-12.8 17.92-28.16 23.04-43.52 10.24-17.92 17.92-38.4 25.6-58.88 7.68-20.48 17.92-40.96 25.6-61.44 2.56-2.56 7.68-2.56 10.24-2.56 25.6 0 48.64-2.56 74.24-2.56H931.84c15.36 0 30.72 0 46.08-2.56h20.48c5.12 0 7.68-2.56 7.68-5.12 2.56-2.56-2.56-20.48-10.24-25.6zM532.48 911.36zM215.04 276.48s0 2.56 0 0c-28.16 30.72-53.76 58.88-79.36 84.48-7.68 10.24-7.68 10.24-12.8 0 0-2.56-2.56-2.56-2.56-5.12-2.56-2.56-5.12-7.68-5.12-10.24 0-2.56-7.68-5.12 0-7.68 23.04-12.8 43.52-28.16 66.56-40.96 10.24-7.68 23.04-12.8 33.28-20.48 0-2.56 0 0 0 0z m358.4-166.4c7.68 7.68 17.92 10.24 25.6 17.92v2.56c2.56 0 2.56 0 5.12 2.56s5.12 2.56 7.68 5.12c-23.04 2.56-40.96 5.12-61.44 10.24-25.6 2.56-53.76 5.12-79.36 10.24-5.12 0-7.68 0-15.36 2.56 7.68-5.12 12.8-7.68 17.92-7.68 28.16-12.8 56.32-23.04 84.48-35.84 5.12-7.68 7.68-10.24 15.36-7.68-2.56 0 0 0 0 0zM189.44 384c15.36-12.8 30.72-23.04 48.64-33.28 20.48-15.36 43.52-30.72 66.56-43.52 2.56 0 2.56-2.56 5.12-2.56 15.36-10.24 33.28-17.92 48.64-28.16 5.12-2.56 2.56-5.12 0-7.68-5.12-5.12-12.8-10.24-17.92-15.36-12.8-10.24-23.04-23.04-38.4-30.72 2.56-7.68 5.12-2.56 7.68 0 20.48 12.8 38.4 25.6 56.32 38.4 5.12 5.12 10.24 5.12 17.92 2.56 15.36-7.68 28.16-12.8 43.52-17.92 10.24-7.68 20.48-10.24 33.28-15.36h2.56c2.56 0 5.12-2.56 7.68-5.12 23.04-7.68 48.64-17.92 71.68-25.6 5.12-2.56 7.68-2.56 12.8-5.12h2.56c5.12-2.56 12.8-5.12 17.92-5.12h5.12l-2.56 2.56c-23.04 10.24-48.64 20.48-74.24 30.72-38.4 15.36-74.24 33.28-112.64 48.64-5.12 2.56-10.24 5.12-12.8 7.68 23.04 20.48 43.52 38.4 64 61.44 7.68 7.68 15.36 17.92 23.04 25.6-2.56 5.12-5.12 0-5.12 0l-10.24-10.24c-23.04-23.04-48.64-46.08-74.24-66.56-2.56-2.56-5.12-5.12-7.68-5.12-30.72 12.8-61.44 30.72-89.6 48.64-15.36 10.24-30.72 17.92-46.08 28.16-15.36 12.8-33.28 20.48-48.64 33.28-2.56 2.56-5.12 2.56-7.68 5.12-5.12 2.56-12.8 7.68-17.92 10.24 0-2.56 2.56-2.56 2.56-5.12 12.8-7.68 20.48-12.8 28.16-20.48z m-17.92 104.96c-2.56-5.12 0-5.12 5.12-5.12l115.2-7.68c12.8 0 23.04 0 35.84-2.56 5.12 0 10.24-2.56 15.36 2.56-2.56 0-5.12 0-7.68 2.56l-23.04 7.68c-33.28 15.36-69.12 23.04-94.72 51.2v2.56c-15.36-17.92-28.16-33.28-46.08-51.2 2.56 2.56 2.56 2.56 0 0z m171.52-15.36z m94.72 332.8z m58.88-437.76z m209.92-69.12z m46.08 58.88s-2.56 0 0 0c-2.56 0-2.56 0 0 0z m-7.68-145.92l5.12 5.12 28.16 28.16c2.56 2.56 7.68 5.12 0 7.68-10.24 0-17.92 5.12-25.6 7.68-28.16 12.8-56.32 28.16-79.36 51.2l-2.56 2.56c-2.56 0-2.56 2.56-5.12 2.56h-2.56c-2.56-2.56-2.56-2.56 0-5.12 25.6-33.28 53.76-66.56 79.36-102.4 0 2.56 2.56 2.56 2.56 2.56z m104.96 332.8c0 2.56 0 2.56 0 0 0 2.56 0 2.56 0 0zM867.84 1024c10.24 0 7.68-7.68 5.12-12.8-2.56 5.12 0 10.24-5.12 12.8zM903.68 1024c10.24 0 7.68-7.68 5.12-12.8 0 5.12 0 10.24-5.12 12.8z" fill="#D97600" p-id="4974"></path></svg>